<svg width="59" height="62" viewBox="0 0 59 62" fill="none" xmlns="http://www.w3.org/2000/svg">
<path d="M12.8069 1.59326V9.0297M46.052 1.59326V9.0297M0.933594 53.6484V16.4661C0.933594 14.4939 1.68415 12.6024 3.02015 11.2078C4.35615 9.81318 6.16816 9.0297 8.05755 9.0297H50.8013C52.6907 9.0297 54.5027 9.81318 55.8387 11.2078C57.1747 12.6024 57.9252 14.4939 57.9252 16.4661V53.6484M0.933594 53.6484C0.933594 55.6206 1.68415 57.5121 3.02015 58.9067C4.35615 60.3013 6.16816 61.0848 8.05755 61.0848H50.8013C52.6907 61.0848 54.5027 60.3013 55.8387 58.9067C57.1747 57.5121 57.9252 55.6206 57.9252 53.6484M0.933594 53.6484V28.8602C0.933594 26.8879 1.68415 24.9965 3.02015 23.6019C4.35615 22.2073 6.16816 21.4238 8.05755 21.4238H50.8013C52.6907 21.4238 54.5027 22.2073 55.8387 23.6019C57.1747 24.9965 57.9252 26.8879 57.9252 28.8602V53.6484M29.4294 33.8178H29.4547V33.8443H29.4294V33.8178ZM29.4294 41.2543H29.4547V41.2807H29.4294V41.2543ZM29.4294 48.6907H29.4547V48.7172H29.4294V48.6907ZM22.3055 41.2543H22.3308V41.2807H22.3055V41.2543ZM22.3055 48.6907H22.3308V48.7172H22.3055V48.6907ZM15.1815 41.2543H15.2068V41.2807H15.1815V41.2543ZM15.1815 48.6907H15.2068V48.7172H15.1815V48.6907ZM36.5534 33.8178H36.5787V33.8443H36.5534V33.8178ZM36.5534 41.2543H36.5787V41.2807H36.5534V41.2543ZM36.5534 48.6907H36.5787V48.7172H36.5534V48.6907ZM43.6773 33.8178H43.7027V33.8443H43.6773V33.8178ZM43.6773 41.2543H43.7027V41.2807H43.6773V41.2543Z" stroke="#09090B" stroke-width="1.5" stroke-linecap="round" stroke-linejoin="round"/>
</svg>
