<svg width="60" height="62" viewBox="0 0 60 62" fill="none" xmlns="http://www.w3.org/2000/svg">
<path d="M48.8478 53.5827C46.6355 50.5251 43.7732 48.0454 40.4864 46.3392C37.1997 44.6329 33.5783 43.7466 29.9076 43.7501C26.2368 43.7466 22.6154 44.6329 19.3287 46.3392C16.042 48.0454 13.1797 50.5251 10.9673 53.5827M48.8478 53.5827C53.1649 49.5743 56.2096 44.2906 57.5839 38.4325C58.9583 32.5743 58.5942 26.4185 56.54 20.7813C54.4858 15.1441 50.8385 10.292 46.0818 6.86828C41.3251 3.44461 35.6838 1.61121 29.906 1.61121C24.1282 1.61121 18.4869 3.44461 13.7302 6.86828C8.97351 10.292 5.32621 15.1441 3.272 20.7813C1.21778 26.4185 0.853706 32.5743 2.22805 38.4325C3.6024 44.2906 6.65023 49.5743 10.9673 53.5827M48.8478 53.5827C43.6363 58.4352 36.891 61.1121 29.9076 61.1018C22.923 61.113 16.1797 58.4359 10.9673 53.5827M39.4062 23.9196C39.4062 26.5492 38.4054 29.0712 36.6241 30.9307C34.8428 32.7902 32.4268 33.8348 29.9076 33.8348C27.3884 33.8348 24.9724 32.7902 23.191 30.9307C21.4097 29.0712 20.409 26.5492 20.409 23.9196C20.409 21.2899 21.4097 18.7679 23.191 16.9084C24.9724 15.0489 27.3884 14.0043 29.9076 14.0043C32.4268 14.0043 34.8428 15.0489 36.6241 16.9084C38.4054 18.7679 39.4062 21.2899 39.4062 23.9196Z" stroke="#09090B" stroke-width="1.5" stroke-linecap="round" stroke-linejoin="round"/>
</svg>
