<?xml version="1.0" encoding="UTF-8" standalone="no"?>
<!-- Generator: Adobe Illustrator 14.0.0, SVG Export Plug-In . SVG Version: 6.00 Build 43363)  -->

<svg
   version="1.1"
   id="Warstwa_1"
   x="0px"
   y="0px"
   width="415.88202"
   height="190.479"
   viewBox="0 80 415.88201 110.22663"
   enable-background="new 0 0 852.033 284.82"
   xml:space="preserve"
   sodipodi:docname="logo.svg"
   inkscape:version="1.3.2 (091e20e, 2023-11-25)"
   xmlns:inkscape="http://www.inkscape.org/namespaces/inkscape"
   xmlns:sodipodi="http://sodipodi.sourceforge.net/DTD/sodipodi-0.dtd"
   xmlns="http://www.w3.org/2000/svg"
   xmlns:svg="http://www.w3.org/2000/svg"><defs
   id="defs16" /><sodipodi:namedview
   id="namedview16"
   pagecolor="#ffffff"
   bordercolor="#000000"
   borderopacity="0.25"
   inkscape:showpageshadow="2"
   inkscape:pageopacity="0.0"
   inkscape:pagecheckerboard="0"
   inkscape:deskcolor="#d1d1d1"
   inkscape:zoom="2.3223258"
   inkscape:cx="221.54514"
   inkscape:cy="127.02782"
   inkscape:window-width="1440"
   inkscape:window-height="771"
   inkscape:window-x="0"
   inkscape:window-y="25"
   inkscape:window-maximized="0"
   inkscape:current-layer="Warstwa_1" />
<polygon
   fill="#f9b521"
   points="5.063,219.746 0,219.746 21.724,272.508 26.995,272.508 "
   id="polygon1"
   transform="translate(0,-41.520098)" />
<polygon
   fill="#f9b521"
   points="241.84,218.746 179.934,218.746 201.869,271.508 263.567,271.508 263.567,271.383 263.695,271.508 363.114,172.099 363.114,259.182 415.868,206.43 415.882,82.029 291.476,82.034 238.722,134.791 325.804,134.787 "
   id="polygon2"
   transform="translate(0,-41.520098)" />
<polygon
   fill="#f9b521"
   points="49.334,218.746 71.269,271.508 99.704,271.508 77.771,218.746 "
   id="polygon3"
   transform="translate(0,-41.520098)" />
<polygon
   fill="#f9b521"
   points="56.657,271.508 34.726,218.746 20.966,218.746 42.899,271.508 "
   id="polygon4"
   transform="translate(0,-41.520098)" />
<polygon
   fill="#f9b521"
   points="94.037,218.746 115.968,271.508 139.674,271.508 117.739,218.746 "
   id="polygon5"
   transform="translate(0,-41.520098)" />
<polygon
   fill="#f9b521"
   points="139.308,218.746 161.24,271.508 189.008,271.508 167.072,218.746 "
   id="polygon6"
   transform="translate(0,-41.520098)" />


</svg>
