<?xml version="1.0" encoding="UTF-8" standalone="no"?>
<!-- Created with Inkscape (http://www.inkscape.org/) -->

<svg
   width="163.715mm"
   height="24.811068mm"
   viewBox="0 0 163.715 24.811068"
   version="1.1"
   id="svg5"
   xml:space="preserve"
   sodipodi:docname="stars.svg"
   inkscape:version="1.3 (0e150ed6c4, 2023-07-21)"
   inkscape:export-filename="stars.png"
   inkscape:export-xdpi="96"
   inkscape:export-ydpi="96"
   xmlns:inkscape="http://www.inkscape.org/namespaces/inkscape"
   xmlns:sodipodi="http://sodipodi.sourceforge.net/DTD/sodipodi-0.dtd"
   xmlns="http://www.w3.org/2000/svg"
   xmlns:svg="http://www.w3.org/2000/svg"><sodipodi:namedview
     id="namedview7"
     pagecolor="#ffffff"
     bordercolor="#000000"
     borderopacity="0.25"
     inkscape:showpageshadow="2"
     inkscape:pageopacity="0.0"
     inkscape:pagecheckerboard="0"
     inkscape:deskcolor="#d1d1d1"
     inkscape:document-units="mm"
     showgrid="false"
     inkscape:zoom="0.36925855"
     inkscape:cx="251.85605"
     inkscape:cy="394.03285"
     inkscape:window-width="1366"
     inkscape:window-height="705"
     inkscape:window-x="-8"
     inkscape:window-y="-8"
     inkscape:window-maximized="1"
     inkscape:current-layer="layer1" /><defs
     id="defs2" /><g
     inkscape:label="Warstwa 1"
     inkscape:groupmode="layer"
     id="layer1"
     transform="translate(-29.916957,-145.01777)"><path
       d="m 180.53718,146.74259 a 1.3062511,1.2952831 0 0 0 -0.85937,0.61856 l -3.11403,5.33611 -5.45393,1.37304 a 1.7062442,1.6919176 0 0 0 -0.84129,2.77968 l 3.66903,3.99097 -0.47956,4.95525 a 1.9993611,1.9825734 0 0 0 2.728,2.03192 l 4.62297,-1.82004 4.80281,1.99109 a 1.8784632,1.8626906 0 0 0 2.59519,-1.88567 l -0.47077,-5.18987 3.89744,-4.51393 a 1.4216143,1.4096777 0 0 0 -0.79014,-2.29702 l -5.6503,-1.16737 -3.25406,-5.58364 a 1.3062511,1.2952831 0 0 0 -1.40199,-0.61908 z"
       style="fill:#ffe500;fill-opacity:1;stroke:#e0d54d;stroke-width:3.394;stroke-linecap:round;stroke-linejoin:round;stroke-dasharray:none;stroke-opacity:0;paint-order:fill markers stroke;stop-color:#000000"
       id="path6" /><path
       d="m 146.23903,146.74259 a 1.3062511,1.2952831 0 0 0 -0.85989,0.61856 l -3.11351,5.33611 -5.45393,1.37304 a 1.7062442,1.6919176 0 0 0 -0.84129,2.77968 l 3.66903,3.99097 -0.47956,4.95525 a 1.9993611,1.9825734 0 0 0 2.728,2.03192 l 4.62297,-1.82004 4.80281,1.99109 a 1.8784632,1.8626906 0 0 0 2.59519,-1.88567 l -0.47077,-5.18987 3.89743,-4.51393 a 1.4216143,1.4096777 0 0 0 -0.79013,-2.29702 l -5.6503,-1.16737 -3.25407,-5.58364 a 1.3062511,1.2952831 0 0 0 -1.40198,-0.61908 z"
       style="fill:#ffe500;fill-opacity:1;stroke:#e0d54d;stroke-width:3.394;stroke-linecap:round;stroke-linejoin:round;stroke-dasharray:none;stroke-opacity:0;paint-order:fill markers stroke;stop-color:#000000"
       id="path5" /><path
       d="m 111.94037,146.74259 a 1.3062511,1.2952831 0 0 0 -0.85938,0.61856 l -3.11351,5.33611 -5.45393,1.37304 a 1.7062442,1.6919176 0 0 0 -0.84129,2.77968 l 3.66903,3.99097 -0.47956,4.95525 a 1.9993611,1.9825734 0 0 0 2.728,2.03192 l 4.62245,-1.82004 4.80281,1.99109 a 1.8784632,1.8626906 0 0 0 2.59571,-1.88567 l -0.47129,-5.18987 3.89795,-4.51393 a 1.4216143,1.4096777 0 0 0 -0.79013,-2.29702 l -5.65082,-1.16737 -3.25355,-5.58364 a 1.3062511,1.2952831 0 0 0 -1.40249,-0.61908 z"
       style="fill:#ffe500;fill-opacity:1;stroke:#e0d54d;stroke-width:3.394;stroke-linecap:round;stroke-linejoin:round;stroke-dasharray:none;stroke-opacity:0;paint-order:fill markers stroke;stop-color:#000000"
       id="path4" /><path
       d="m 77.642223,146.74259 a 1.3062511,1.2952831 0 0 0 -0.85938,0.61856 l -3.113505,5.33611 -5.454447,1.37304 a 1.7062442,1.6919176 0 0 0 -0.841292,2.77968 l 3.669026,3.99097 -0.479557,4.95525 a 1.9993611,1.9825734 0 0 0 2.728516,2.03192 l 4.622457,-1.82004 4.802807,1.99109 a 1.8784632,1.8626906 0 0 0 2.595707,-1.88567 l -0.471289,-5.18987 3.897437,-4.51393 a 1.4216143,1.4096777 0 0 0 -0.789616,-2.29702 l -5.650818,-1.16737 -3.254065,-5.58364 a 1.3062511,1.2952831 0 0 0 -1.401981,-0.61908 z"
       style="fill:#ffe500;fill-opacity:1;stroke:#e0d54d;stroke-width:3.394;stroke-linecap:round;stroke-linejoin:round;stroke-dasharray:none;stroke-opacity:0;paint-order:fill markers stroke;stop-color:#000000"
       id="path3" /><path
       d="m 42.285725,146.74259 a 1.3062511,1.2952831 0 0 0 -0.859379,0.61856 l -3.114022,5.33611 -5.453931,1.37304 a 1.7062442,1.6919176 0 0 0 -0.841292,2.77968 l 3.669027,3.99097 -0.479557,4.95525 a 1.9993611,1.9825734 0 0 0 2.727998,2.03192 l 4.622974,-1.82004 4.802808,1.99109 a 1.8784632,1.8626906 0 0 0 2.59519,-1.88567 l -0.470772,-5.18987 3.897436,-4.51393 a 1.4216143,1.4096777 0 0 0 -0.790132,-2.29702 l -5.650301,-1.16737 -3.254065,-5.58364 a 1.3062511,1.2952831 0 0 0 -1.401982,-0.61908 z"
       style="fill:#ffe500;fill-opacity:1;stroke:#e0d54d;stroke-width:3.394;stroke-linecap:round;stroke-linejoin:round;stroke-dasharray:none;stroke-opacity:0;paint-order:fill markers stroke;stop-color:#000000"
       id="path2" /></g></svg>
