<svg width="64" height="59" viewBox="0 0 64 59" fill="none" xmlns="http://www.w3.org/2000/svg">
<path d="M48.0094 39.9931C49.4905 38.9373 51.2277 38.3408 53.0201 38.2726C54.8124 38.2045 56.5866 38.6674 58.1375 39.6078C59.6883 40.5483 60.9524 41.9279 61.7834 43.587C62.6145 45.2461 62.9785 47.1169 62.8335 48.983C59.0346 50.3689 54.9996 50.9082 50.9888 50.5661C50.9764 46.8202 49.9431 43.152 48.0094 39.9965C46.293 37.1864 43.9253 34.8737 41.1255 33.2723C38.3257 31.6709 35.1841 30.8325 31.9916 30.8348C28.7995 30.833 25.6586 31.6717 22.8594 33.2731C20.0601 34.8745 17.693 37.1869 15.9769 39.9965M50.9856 50.5628L50.9888 50.6653C50.9888 51.4089 50.9508 52.1426 50.8716 52.8665C45.1261 56.3075 38.6155 58.1128 31.9916 58.1017C25.1209 58.1017 18.6713 56.198 13.1115 52.8665C13.0301 52.1016 12.991 51.3324 12.9943 50.5628M12.9943 50.5628C8.98476 50.9173 4.9519 50.38 1.15592 48.9863C1.01138 47.1207 1.37563 45.2506 2.20655 43.592C3.03747 41.9335 4.30112 40.5543 5.8514 39.614C7.40168 38.6737 9.17526 38.2106 10.9671 38.2782C12.7589 38.3459 14.4958 38.9416 15.9769 39.9965M12.9943 50.5628C13.0057 46.8172 14.0443 43.1524 15.9769 39.9965M41.4902 11.0042C41.4902 13.6339 40.4894 16.1559 38.7081 18.0154C36.9268 19.8749 34.5107 20.9195 31.9916 20.9195C29.4724 20.9195 27.0564 19.8749 25.275 18.0154C23.4937 16.1559 22.493 13.6339 22.493 11.0042C22.493 8.37456 23.4937 5.85257 25.275 3.9931C27.0564 2.13363 29.4724 1.08899 31.9916 1.08899C34.5107 1.08899 36.9268 2.13363 38.7081 3.9931C40.4894 5.85257 41.4902 8.37456 41.4902 11.0042ZM60.4874 20.9195C60.4874 21.8961 60.3031 22.8631 59.9451 23.7653C59.5871 24.6675 59.0623 25.4873 58.4008 26.1779C57.7393 26.8684 56.954 27.4162 56.0896 27.7899C55.2253 28.1636 54.299 28.3559 53.3634 28.3559C52.4279 28.3559 51.5015 28.1636 50.6372 27.7899C49.7729 27.4162 48.9875 26.8684 48.326 26.1779C47.6645 25.4873 47.1398 24.6675 46.7817 23.7653C46.4237 22.8631 46.2395 21.8961 46.2395 20.9195C46.2395 18.9472 46.99 17.0557 48.326 15.6611C49.662 14.2665 51.474 13.4831 53.3634 13.4831C55.2528 13.4831 57.0648 14.2665 58.4008 15.6611C59.7368 17.0557 60.4874 18.9472 60.4874 20.9195ZM17.7436 20.9195C17.7436 21.8961 17.5594 22.8631 17.2014 23.7653C16.8434 24.6675 16.3186 25.4873 15.6571 26.1779C14.9956 26.8684 14.2102 27.4162 13.3459 27.7899C12.4816 28.1636 11.5552 28.3559 10.6197 28.3559C9.68416 28.3559 8.75779 28.1636 7.89347 27.7899C7.02916 27.4162 6.24382 26.8684 5.5823 26.1779C4.92078 25.4873 4.39603 24.6675 4.03802 23.7653C3.68001 22.8631 3.49574 21.8961 3.49574 20.9195C3.49574 18.9472 4.2463 17.0557 5.5823 15.6611C6.9183 14.2665 8.7303 13.4831 10.6197 13.4831C12.5091 13.4831 14.3211 14.2665 15.6571 15.6611C16.9931 17.0557 17.7436 18.9472 17.7436 20.9195Z" stroke="currentColor" stroke-width="1.5" stroke-linecap="round" stroke-linejoin="round"/>
</svg>
