<svg width="59" height="62" viewBox="0 0 59 62" fill="none" xmlns="http://www.w3.org/2000/svg">
<path d="M48.4686 16.4831V26.3984M48.4686 26.3984V36.3136M48.4686 26.3984H57.9672M48.4686 26.3984H38.97M31.8461 12.7649C31.8461 15.7233 30.7202 18.5605 28.7162 20.6524C26.7122 22.7443 23.9942 23.9196 21.1601 23.9196C18.326 23.9196 15.608 22.7443 13.604 20.6524C11.6 18.5605 10.4742 15.7233 10.4742 12.7649C10.4742 9.80649 11.6 6.96926 13.604 4.87735C15.608 2.78545 18.326 1.61023 21.1601 1.61023C23.9942 1.61023 26.7122 2.78545 28.7162 4.87735C30.7202 6.96926 31.8461 9.80649 31.8461 12.7649ZM0.975586 55.2683V54.9047C0.975586 49.3166 3.10217 43.9574 6.8875 40.006C10.6728 36.0547 15.8069 33.8348 21.1601 33.8348C26.5134 33.8348 31.6474 36.0547 35.4328 40.006C39.2181 43.9574 41.3447 49.3166 41.3447 54.9047V55.265C35.2512 59.0959 28.2702 61.1143 21.157 61.1018C13.7765 61.1018 6.87105 58.97 0.975586 55.265V55.2683Z" stroke="#09090B" stroke-width="1.5" stroke-linecap="round" stroke-linejoin="round"/>
</svg>
