<?xml version="1.0" encoding="UTF-8" standalone="no"?>
<!-- Created with Inkscape (http://www.inkscape.org/) -->

<svg
   width="210mm"
   height="297mm"
   viewBox="0 0 210 297"
   version="1.1"
   id="svg5"
   xml:space="preserve"
   sodipodi:docname="stars.svg"
   inkscape:version="1.3 (0e150ed6c4, 2023-07-21)"
   inkscape:export-filename="stars.png"
   inkscape:export-xdpi="96"
   inkscape:export-ydpi="96"
   xmlns:inkscape="http://www.inkscape.org/namespaces/inkscape"
   xmlns:sodipodi="http://sodipodi.sourceforge.net/DTD/sodipodi-0.dtd"
   xmlns="http://www.w3.org/2000/svg"
   xmlns:svg="http://www.w3.org/2000/svg"><sodipodi:namedview
     id="namedview7"
     pagecolor="#ffffff"
     bordercolor="#000000"
     borderopacity="0.25"
     inkscape:showpageshadow="2"
     inkscape:pageopacity="0.0"
     inkscape:pagecheckerboard="0"
     inkscape:deskcolor="#d1d1d1"
     inkscape:document-units="mm"
     showgrid="false"
     inkscape:zoom="0.36925855"
     inkscape:cx="251.85605"
     inkscape:cy="394.03285"
     inkscape:window-width="1366"
     inkscape:window-height="705"
     inkscape:window-x="-8"
     inkscape:window-y="-8"
     inkscape:window-maximized="1"
     inkscape:current-layer="layer1" /><defs
     id="defs2"><inkscape:path-effect
       effect="fillet_chamfer"
       id="path-effect6"
       is_visible="true"
       lpeversion="1"
       nodesatellites_param="F,0,0,1,0,0,0,1 @ F,0,0,1,0,1.7160439,0,1 @ F,0,0,1,0,0,0,1 @ F,0,0,1,0,1.8260543,0,1 @ F,0,0,1,0,0,0,1 @ F,0,0,1,0,2.3669119,0,1 @ F,0,0,1,0,0,0,1 @ F,0,0,1,0,2.4851624,0,1 @ F,0,0,1,0,0,0,1 @ F,0,0,1,0,2.1617453,0,1"
       radius="0"
       unit="px"
       method="auto"
       mode="F"
       chamfer_steps="1"
       flexible="false"
       use_knot_distance="true"
       apply_no_radius="true"
       apply_with_radius="true"
       only_selected="false"
       hide_knots="false" /><inkscape:path-effect
       effect="fillet_chamfer"
       id="path-effect5"
       is_visible="true"
       lpeversion="1"
       nodesatellites_param="F,0,0,1,0,0,0,1 @ F,0,0,1,0,0,0,1 @ F,0,0,1,0,0,0,1 @ F,0,0,1,0,0,0,1 @ F,0,0,1,0,0,0,1 @ F,0,0,1,0,0,0,1 @ F,0,0,1,0,0,0,1 @ F,0,0,1,0,0,0,1 @ F,0,0,1,0,0,0,1 @ F,0,0,1,0,0,0,1"
       radius="0"
       unit="px"
       method="auto"
       mode="F"
       chamfer_steps="1"
       flexible="false"
       use_knot_distance="true"
       apply_no_radius="true"
       apply_with_radius="true"
       only_selected="false"
       hide_knots="false" /><inkscape:path-effect
       effect="fillet_chamfer"
       id="path-effect6-6"
       is_visible="true"
       lpeversion="1"
       nodesatellites_param="F,0,0,1,0,0,0,1 @ F,0,0,1,0,1.7160439,0,1 @ F,0,0,1,0,0,0,1 @ F,0,0,1,0,1.8260543,0,1 @ F,0,0,1,0,0,0,1 @ F,0,0,1,0,2.3669119,0,1 @ F,0,0,1,0,0,0,1 @ F,0,0,1,0,2.4851624,0,1 @ F,0,0,1,0,0,0,1 @ F,0,0,1,0,2.1617453,0,1"
       radius="0"
       unit="px"
       method="auto"
       mode="F"
       chamfer_steps="1"
       flexible="false"
       use_knot_distance="true"
       apply_no_radius="true"
       apply_with_radius="true"
       only_selected="false"
       hide_knots="false" /><inkscape:path-effect
       effect="fillet_chamfer"
       id="path-effect6-4"
       is_visible="true"
       lpeversion="1"
       nodesatellites_param="F,0,0,1,0,0,0,1 @ F,0,0,1,0,1.7160439,0,1 @ F,0,0,1,0,0,0,1 @ F,0,0,1,0,1.8260543,0,1 @ F,0,0,1,0,0,0,1 @ F,0,0,1,0,2.3669119,0,1 @ F,0,0,1,0,0,0,1 @ F,0,0,1,0,2.4851624,0,1 @ F,0,0,1,0,0,0,1 @ F,0,0,1,0,2.1617453,0,1"
       radius="0"
       unit="px"
       method="auto"
       mode="F"
       chamfer_steps="1"
       flexible="false"
       use_knot_distance="true"
       apply_no_radius="true"
       apply_with_radius="true"
       only_selected="false"
       hide_knots="false" /><inkscape:path-effect
       effect="fillet_chamfer"
       id="path-effect6-3"
       is_visible="true"
       lpeversion="1"
       nodesatellites_param="F,0,0,1,0,0,0,1 @ F,0,0,1,0,1.7160439,0,1 @ F,0,0,1,0,0,0,1 @ F,0,0,1,0,1.8260543,0,1 @ F,0,0,1,0,0,0,1 @ F,0,0,1,0,2.3669119,0,1 @ F,0,0,1,0,0,0,1 @ F,0,0,1,0,2.4851624,0,1 @ F,0,0,1,0,0,0,1 @ F,0,0,1,0,2.1617453,0,1"
       radius="0"
       unit="px"
       method="auto"
       mode="F"
       chamfer_steps="1"
       flexible="false"
       use_knot_distance="true"
       apply_no_radius="true"
       apply_with_radius="true"
       only_selected="false"
       hide_knots="false" /><inkscape:path-effect
       effect="fillet_chamfer"
       id="path-effect6-7"
       is_visible="true"
       lpeversion="1"
       nodesatellites_param="F,0,0,1,0,0,0,1 @ F,0,0,1,0,1.7160439,0,1 @ F,0,0,1,0,0,0,1 @ F,0,0,1,0,1.8260543,0,1 @ F,0,0,1,0,0,0,1 @ F,0,0,1,0,2.3669119,0,1 @ F,0,0,1,0,0,0,1 @ F,0,0,1,0,2.4851624,0,1 @ F,0,0,1,0,0,0,1 @ F,0,0,1,0,2.1617453,0,1"
       radius="0"
       unit="px"
       method="auto"
       mode="F"
       chamfer_steps="1"
       flexible="false"
       use_knot_distance="true"
       apply_no_radius="true"
       apply_with_radius="true"
       only_selected="false"
       hide_knots="false" /><inkscape:path-effect
       effect="fillet_chamfer"
       id="path-effect6-5"
       is_visible="true"
       lpeversion="1"
       nodesatellites_param="F,0,0,1,0,0,0,1 @ F,0,0,1,0,1.7160439,0,1 @ F,0,0,1,0,0,0,1 @ F,0,0,1,0,1.8260543,0,1 @ F,0,0,1,0,0,0,1 @ F,0,0,1,0,2.3669119,0,1 @ F,0,0,1,0,0,0,1 @ F,0,0,1,0,2.4851624,0,1 @ F,0,0,1,0,0,0,1 @ F,0,0,1,0,2.1617453,0,1"
       radius="0"
       unit="px"
       method="auto"
       mode="F"
       chamfer_steps="1"
       flexible="false"
       use_knot_distance="true"
       apply_no_radius="true"
       apply_with_radius="true"
       only_selected="false"
       hide_knots="false" /></defs><g
     inkscape:label="Warstwa 1"
     inkscape:groupmode="layer"
     id="layer1"><path
       id="rect1877"
       style="fill:#ffffff;fill-opacity:1;stroke:#e0d54d;stroke-width:3.3945;stroke-linecap:round;stroke-linejoin:round;stroke-opacity:0;paint-order:fill markers stroke;stop-color:#000000"
       d="M 21.435901 124.25081 L 21.435901 147.85919 L 189.46285 147.85919 L 189.46285 124.25081 L 21.435901 124.25081 z M 32.254362 125.42594 A 1.3062511 1.2952831 0 0 1 33.656344 126.04502 L 36.910409 131.62866 L 42.56071 132.79603 A 1.4216143 1.4096777 0 0 1 43.350842 135.09305 L 39.453406 139.60698 L 39.924178 144.79685 A 1.8784632 1.8626906 0 0 1 37.328988 146.68252 L 32.52618 144.69143 L 27.903206 146.51147 A 1.9993611 1.9825734 0 0 1 25.175208 144.47955 L 25.654765 139.5243 L 21.985738 135.53333 A 1.7062442 1.6919176 0 0 1 22.82703 132.75365 L 28.280961 131.38061 L 31.394983 126.0445 A 1.3062511 1.2952831 0 0 1 32.254362 125.42594 z M 68.669194 125.42594 A 1.3062511 1.2952831 0 0 1 70.071175 126.04502 L 73.32524 131.62866 L 78.976058 132.79603 A 1.4216143 1.4096777 0 0 1 79.765674 135.09305 L 75.868237 139.60698 L 76.339526 144.79685 A 1.8784632 1.8626906 0 0 1 73.743819 146.68252 L 68.941012 144.69143 L 64.318555 146.51147 A 1.9993611 1.9825734 0 0 1 61.590039 144.47955 L 62.069596 139.5243 L 58.40057 135.53333 A 1.7062442 1.6919176 0 0 1 59.241862 132.75365 L 64.696309 131.38061 L 67.809814 126.0445 A 1.3062511 1.2952831 0 0 1 68.669194 125.42594 z M 105.08403 125.42594 A 1.3062511 1.2952831 0 0 1 106.48652 126.04502 L 109.74007 131.62866 L 115.39089 132.79603 A 1.4216143 1.4096777 0 0 1 116.18102 135.09305 L 112.28307 139.60698 L 112.75436 144.79685 A 1.8784632 1.8626906 0 0 1 110.15865 146.68252 L 105.35584 144.69143 L 100.73339 146.51147 A 1.9993611 1.9825734 0 0 1 98.005387 144.47955 L 98.484945 139.5243 L 94.815918 135.53333 A 1.7062442 1.6919176 0 0 1 95.65721 132.75365 L 101.11114 131.38061 L 104.22465 126.0445 A 1.3062511 1.2952831 0 0 1 105.08403 125.42594 z M 141.49937 125.42594 A 1.3062511 1.2952831 0 0 1 142.90135 126.04502 L 146.15542 131.62866 L 151.80572 132.79603 A 1.4216143 1.4096777 0 0 1 152.59585 135.09305 L 148.69842 139.60698 L 149.16919 144.79685 A 1.8784632 1.8626906 0 0 1 146.574 146.68252 L 141.77119 144.69143 L 137.14822 146.51147 A 1.9993611 1.9825734 0 0 1 134.42022 144.47955 L 134.89978 139.5243 L 131.23075 135.53333 A 1.7062442 1.6919176 0 0 1 132.07204 132.75365 L 137.52597 131.38061 L 140.63948 126.0445 A 1.3062511 1.2952831 0 0 1 141.49937 125.42594 z M 177.9142 125.42594 A 1.3062511 1.2952831 0 0 1 179.31619 126.04502 L 182.57025 131.62866 L 188.22055 132.79603 A 1.4216143 1.4096777 0 0 1 189.01069 135.09305 L 185.11325 139.60698 L 185.58402 144.79685 A 1.8784632 1.8626906 0 0 1 182.98883 146.68252 L 178.18602 144.69143 L 173.56305 146.51147 A 1.9993611 1.9825734 0 0 1 170.83505 144.47955 L 171.31461 139.5243 L 167.64558 135.53333 A 1.7062442 1.6919176 0 0 1 168.48687 132.75365 L 173.9408 131.38061 L 177.05483 126.0445 A 1.3062511 1.2952831 0 0 1 177.9142 125.42594 z "
       inkscape:export-filename=".\rect1877.png"
       inkscape:export-xdpi="96"
       inkscape:export-ydpi="96" /></g></svg>
